<svg height="496pt" viewBox="0 0 496 496" width="496pt" xmlns="http://www.w3.org/2000/svg"><path d="m486.777344 443.648438-170.457032-165.976563 125.183594-208.625c4.25-7.078125 6.496094-15.191406 6.496094-23.453125 0-25.136719-20.457031-45.59375-45.585938-45.59375h-356.828124c-25.128907 0-45.585938 20.457031-45.585938 45.59375 0 8.261719 2.246094 16.375 6.496094 23.445312l175.6875 292.824219c8.199218 13.65625 23.175781 22.136719 39.097656 22.136719h5.4375c15.921875 0 30.898438-8.480469 39.097656-22.136719l21.429688-35.71875 156.402344 160.625c5.695312 5.871094 13.664062 9.230469 21.855468 9.230469 16.816406 0 30.496094-13.679688 30.496094-30.503906 0-8.183594-3.359375-16.152344-9.222656-21.847656zm-268.335938-261.28125c3.621094-6.863282 5.558594-14.464844 5.558594-22.367188 0-13.382812-5.519531-25.496094-14.382812-34.207031 4.542968 1.429687 9.375 2.207031 14.382812 2.207031s9.839844-.777344 14.382812-2.207031c-8.863281 8.710937-14.382812 20.824219-14.382812 34.207031 0 26.472656 21.527344 48 48 48s48-21.527344 48-48c0-13.382812-5.519531-25.496094-14.382812-34.207031 4.542968 1.429687 9.375 2.207031 14.382812 2.207031 26.472656 0 48-21.527344 48-48 0-12.304688-4.6875-23.496094-12.320312-32h42.472656l-117.160156 195.273438zm-66.441406-5.304688c0 1.488281.167969 2.953125.425781 4.386719-5.1875-5.679688-8.425781-13.167969-8.425781-21.449219 0-17.648438 14.351562-32 32-32s32 14.351562 32 32c0 3.617188-.632812 7.128906-1.785156 10.464844l-11.664063-11.351563c-4.710937-4.59375-10.917969-7.113281-17.488281-7.113281-13.824219 0-25.0625 11.246094-25.0625 25.0625zm152-17.0625c0 17.648438-14.351562 32-32 32s-32-14.351562-32-32 14.351562-32 32-32 32 14.351562 32 32zm48-80c0 17.648438-14.351562 32-32 32s-32-14.351562-32-32 14.351562-32 32-32 32 14.351562 32 32zm-65.617188 34.207031c-4.542968-1.429687-9.375-2.207031-14.382812-2.207031s-9.839844.777344-14.382812 2.207031c8.863281-8.710937 14.382812-20.824219 14.382812-34.207031 0-12.304688-4.6875-23.496094-12.320312-32h24.648437c-7.640625 8.503906-12.328125 19.695312-12.328125 32 0 13.382812 5.519531 25.496094 14.382812 34.207031zm-30.382812-34.207031c0 17.648438-14.351562 32-32 32s-32-14.351562-32-32 14.351562-32 32-32 32 14.351562 32 32zm-65.617188 34.207031c-4.542968-1.429687-9.375-2.207031-14.382812-2.207031s-9.839844.777344-14.382812 2.207031c8.863281-8.710937 14.382812-20.824219 14.382812-34.207031 0-12.304688-4.6875-23.496094-12.320312-32h24.648437c-7.640625 8.503906-12.328125 19.695312-12.328125 32 0 13.382812 5.519531 25.496094 14.382812 34.207031zm-30.382812-34.207031c0 17.648438-14.351562 32-32 32s-32-14.351562-32-32 14.351562-32 32-32 32 14.351562 32 32zm-32 48c5.007812 0 9.839844-.777344 14.382812-2.207031-8.863281 8.710937-14.382812 20.824219-14.382812 34.207031 0 25.121094 19.398438 45.753906 44 47.800781l9.574219 9.832031c-3.628907 6.855469-5.574219 14.464844-5.574219 22.367188 0 26.472656 21.527344 48 48 48 7.449219 0 14.679688-1.71875 21.246094-4.976562l7.363281 7.5625-27.25 45.414062h-2.710937l-172.808594-288h42.480468c-7.632812 8.503906-12.320312 19.695312-12.320312 32 0 26.472656 21.527344 48 48 48zm65.601562 101.984375 39.589844 40.65625c-2.960937.886719-6.046875 1.359375-9.191406 1.359375-17.648438 0-32-14.351562-32-32 0-3.449219.550781-6.816406 1.601562-10.015625zm-23.035156-46.59375c-1.65625-1.703125-2.566406-3.949219-2.566406-6.328125 0-5 4.0625-9.0625 9.0625-9.0625 2.378906 0 4.625.910156 6.328125 2.566406l208.105469 202.632813-18.296875 18.289062zm232.386719 200.96875 12.855469 12.519531-18.9375 18.929688-12.519532-12.855469zm-150.855469-30.726563c-5.320312 8.863282-15.042968 14.367188-25.378906 14.367188h-5.4375c-10.335938 0-20.058594-5.503906-25.378906-14.367188l-175.6875-292.824218c-2.75-4.59375-4.214844-9.855469-4.214844-15.214844 0-16.320312 13.273438-29.59375 29.585938-29.59375h356.828124c16.3125 0 29.585938 13.273438 29.585938 29.59375 0 5.359375-1.464844 10.621094-4.214844 15.214844l-123.242187 205.398437-11.765625-11.464843 121.277344-202.148438c1.273437-2.105469 1.945312-4.539062 1.945312-7.007812 0-7.488282-6.097656-13.585938-13.585938-13.585938h-356.828124c-7.488282 0-13.585938 6.097656-13.585938 13.585938 0 2.460937.664062 4.878906 1.9375 7l175.695312 292.820312c2.457032 4.074219 6.910157 6.59375 11.648438 6.59375h5.4375c4.730469 0 9.183594-2.511719 11.65625-6.59375l25.777344-42.964844 11.542968 11.855469zm213.40625 126.367188c-3.886718 0-7.679687-1.601562-10.390625-4.382812l-47.074219-48.34375 19.242188-19.234376 48.34375 47.074219c2.773438 2.710938 4.375 6.496094 4.375 10.382813 0 8-6.503906 14.503906-14.496094 14.503906zm0 0"/></svg>