<svg id="Capa_1" enable-background="new 0 0 512 512" height="512" viewBox="0 0 512 512" width="512" xmlns="http://www.w3.org/2000/svg"><g><path d="m67.077 177.233h-44.577c-4.143 0-7.5 3.357-7.5 7.5s3.357 7.5 7.5 7.5h44.577c4.143 0 7.5-3.357 7.5-7.5s-3.357-7.5-7.5-7.5z"/><path d="m27.136 107.38 36.671 17.772c1.054.511 2.168.753 3.265.753 2.784 0 5.459-1.558 6.755-4.231 1.807-3.727.249-8.213-3.479-10.02l-36.671-17.772c-3.729-1.808-8.213-.249-10.02 3.479-1.806 3.726-.249 8.213 3.479 10.019z"/><path d="m63.807 244.341-36.671 17.772c-3.728 1.807-5.285 6.293-3.479 10.02 1.296 2.674 3.97 4.231 6.755 4.231 1.097 0 2.212-.242 3.265-.753l36.671-17.772c3.728-1.807 5.285-6.293 3.479-10.02s-6.295-5.286-10.02-3.478z"/><path d="m489.5 177.233h-44.605c-4.143 0-7.5 3.357-7.5 7.5s3.357 7.5 7.5 7.5h44.605c4.143 0 7.5-3.357 7.5-7.5s-3.357-7.5-7.5-7.5z"/><path d="m444.901 125.906c1.096 0 2.21-.242 3.263-.752l36.699-17.772c3.729-1.806 5.287-6.291 3.481-10.019-1.804-3.728-6.288-5.286-10.019-3.481l-36.699 17.772c-3.729 1.806-5.287 6.291-3.481 10.019 1.295 2.675 3.97 4.233 6.756 4.233z"/><path d="m484.863 262.113-36.699-17.772c-3.729-1.807-8.215-.247-10.019 3.481-1.806 3.728-.247 8.213 3.481 10.019l36.699 17.772c1.053.51 2.166.752 3.263.752 2.785 0 5.461-1.559 6.756-4.233 1.806-3.728.247-8.214-3.481-10.019z"/><path d="m255.985.015c-29.302-.409-58.3 7.484-83.907 22.806-3.555 2.127-4.712 6.732-2.585 10.287 2.125 3.556 6.732 4.712 10.286 2.585 23.248-13.907 49.557-21.049 76.1-20.678.072.002.145.002.217 0 38.128-.583 75.737 14.606 103.151 41.595 19.908 19.6 43.654 54.548 43.716 109.735.06 51.737-20.365 79.54-41.989 108.976-3.584 4.879-7.193 9.792-10.715 14.841-5.464-24.244-26.383-32.357-44.593-37.51-.004-.001-.008-.003-.013-.004-2.252-.637-4.463-1.23-6.597-1.802-1.397-.374-2.788-.746-4.189-1.13-2.151-.58-3.708-3.355-4.868-6.096 20.954-14.098 36.6-38.462 36.6-59.682v-19.303c0-23.743-7.575-43.891-21.905-58.263-12.81-12.848-30.062-20.097-48.578-20.413-.086-.002-.172-.002-.256 0-18.506.316-35.753 7.565-48.565 20.412-14.338 14.376-21.917 34.523-21.917 58.264v19.303c0 21.222 15.652 45.585 36.62 59.683-1.166 2.743-2.73 5.518-4.884 6.102-1.373.375-2.76.746-4.154 1.119-19.411 5.192-45.092 12.064-51.24 39.311-3.519-5.043-7.125-9.95-10.705-14.823-21.631-29.437-42.062-57.241-42.002-108.984.057-43.768 15.214-81.744 43.832-109.824 2.956-2.901 3.002-7.649.101-10.606-2.901-2.956-7.649-3.002-10.606-.101-31.553 30.96-48.264 72.633-48.326 120.513-.065 56.672 22.801 87.791 44.914 117.885 7.981 10.862 15.755 21.445 22.303 33.035.041.077.087.151.13.227 6.302 11.195 11.449 23.344 14.536 37.59-13.726 2.75-24.1 14.895-24.1 29.421 0 14.152 9.83 26.042 23.012 29.204-2.87 4.6-4.536 10.027-4.536 15.837 0 16.546 13.459 30.007 30.002 30.007h9.701v18.72c0 18.608 15.124 33.748 33.714 33.748h24.599c18.605 0 33.742-15.14 33.742-33.748v-18.72h9.701c16.543 0 30.002-13.461 30.002-30.007 0-5.811-1.665-11.237-4.536-15.837 13.182-3.162 23.012-15.052 23.012-29.204 0-14.527-10.375-26.673-24.103-29.421 6.299-29.114 21.225-49.446 36.958-70.862 22.106-30.093 44.966-61.209 44.9-117.874-.054-47.785-16.719-89.421-48.192-120.407-30.232-29.76-71.708-46.452-113.788-45.907zm.001 100.945c24.815.481 51.337 17.763 55.146 54.452-4.332-1.681-6.903-4.304-9.571-7.025-4.579-4.672-10.853-11.07-23.697-7.767-3.199.825-5.928 1.554-8.298 2.187-7.104 1.896-10.671 2.849-13.579 2.849-2.876 0-6.427-.946-13.5-2.832-2.389-.637-5.145-1.371-8.379-2.204-12.847-3.301-19.107 3.094-23.681 7.765-2.67 2.726-5.241 5.352-9.586 7.033 3.806-36.696 30.328-53.975 55.145-54.458zm-55.611 82.979v-12.813c11.102-2.413 16.797-8.192 20.768-12.246 3.953-4.037 4.774-4.879 9.226-3.732 3.187.819 5.9 1.543 8.253 2.17 8.075 2.153 12.523 3.339 17.364 3.339 4.876 0 9.342-1.192 17.448-3.356 2.334-.623 5.022-1.341 8.17-2.152 4.455-1.146 5.279-.305 9.243 3.739 3.97 4.051 9.666 9.825 20.75 12.238v12.814c0 20.221-19.817 45.32-42.399 53.711-9.743 3.602-16.649 3.603-26.387.003-22.606-8.391-42.436-33.491-42.436-53.715zm37.225 67.779c6.534 2.417 12.465 3.625 18.398 3.625 5.935 0 11.872-1.21 18.413-3.629.787-.292 1.57-.607 2.35-.93 1.777 3.875 4.463 8.221 8.878 11.063l-24.891 14.607c-.092.054-.183.11-.271.168-4.145 2.676-4.817 2.677-8.993-.009-.085-.054-.171-.106-.258-.157l-24.88-14.611c4.414-2.845 7.104-7.189 8.885-11.063.786.326 1.575.642 2.369.936zm-62.248 51.5c0-21.727 11.854-29.093 31.913-35.185l36.24 21.283c4.493 2.865 8.494 4.298 12.493 4.298s7.995-1.434 12.474-4.301l36.259-21.278c20.045 6.093 31.889 13.459 31.889 35.182v8.626c-6.84 12.478-12.494 26.312-15.719 42.634h-129.804c-3.232-16.332-8.896-30.173-15.745-42.657zm111.676 175.034c0 10.338-8.407 18.748-18.742 18.748h-24.599c-10.319 0-18.714-8.41-18.714-18.748v-18.72h62.055zm58.179-93.767c0 8.29-6.729 15.035-15.001 15.035h-55.686c-4.143 0-7.5 3.357-7.5 7.5s3.357 7.5 7.5 7.5h37.209c8.272 0 15.002 6.731 15.002 15.006s-6.729 15.007-15.002 15.007h-17.201-77.055-17.201c-8.272 0-15.002-6.732-15.002-15.007s6.729-15.006 15.002-15.006h37.775c4.143 0 7.5-3.357 7.5-7.5s-3.357-7.5-7.5-7.5h-56.253c-8.271 0-15.001-6.745-15.001-15.035 0-8.274 6.729-15.007 15.001-15.007h3.004 142.404 3.004c8.272 0 15.001 6.732 15.001 15.007z"/></g></svg>